<svg width="200" height="200" viewBox="0 0 200 200" fill="none" xmlns="http://www.w3.org/2000/svg">
<path d="M87.7808 78.7017L73.8368 84.516L73.1022 80.1107L57.0562 95.4296L69.0624 90.7111L69.3805 93.7022L90.0247 85.6242L94.9828 100.92L99.6799 96.458L88.0808 60.6741L83.4572 65.363L87.7808 78.7017Z" fill="#FF6B00"/>
<path d="M128.358 78.5285C127.272 79.1267 126.306 79.9198 125.508 80.8681L120.645 86.6653L117.339 83.6709L88.8158 60.6738L103.74 106.764L83.0266 131.47L94.7249 128.755L106.112 114.924L109.394 126.271L72.5422 136.652L82.1243 139.327L120.158 131.038L118.265 126.048L111.821 107.938L121.076 96.7025L126.418 101.438C126.418 101.438 136.232 109.335 146.277 99.649C155.963 90.2586 146.788 68.2677 128.358 78.5285ZM109.146 100.384L101.76 79.6224L115.989 92.2229L109.146 100.384ZM132.582 96.6866L126.194 91.6959L125.739 91.2887L130.371 85.8029C130.371 85.8029 134.251 80.5966 140.288 83.9024C146.325 87.2083 142.236 100.408 132.582 96.6866Z" fill="#FF6B00"/>
</svg>
